<svg width="655" height="184" viewBox="0 0 655 184" fill="none" xmlns="http://www.w3.org/2000/svg">
<path fill-rule="evenodd" clip-rule="evenodd" d="M37.551 0C16.8122 0 0 16.8122 0 37.551V146.449C0 167.188 16.8122 184 37.551 184H146.449C167.188 184 184 167.188 184 146.449V37.551C184 16.8122 167.188 0 146.449 0H37.551ZM92.1878 32.6694C87.1327 32.6694 83.0347 36.7674 83.0347 41.8225V72.5861C83.0347 78.393 78.3273 83.1004 72.5204 83.1004H40.0669C35.1518 83.1004 31.1673 87.0849 31.1673 92C31.1673 96.9151 35.1518 100.9 40.0669 100.9H72.5204C78.3273 100.9 83.0347 105.607 83.0347 111.414V142.178C83.0347 147.233 87.1327 151.331 92.1878 151.331C97.2429 151.331 101.341 147.233 101.341 142.178V111.414C101.341 105.607 106.048 100.9 111.855 100.9H144.309C149.224 100.9 153.208 96.9151 153.208 92C153.208 87.0849 149.224 83.1004 144.309 83.1004H111.855C106.048 83.1004 101.341 78.393 101.341 72.5861V41.8224C101.341 36.7674 97.2429 32.6694 92.1878 32.6694Z" fill="#568BDA"/>
<path d="M270.656 74.736L270.4 94.832H275.52C279.019 94.7467 282.133 94.704 284.864 94.704C287.595 94.704 290.624 94.7467 293.952 94.832H294.592C295.616 94.832 296.597 94.8747 297.536 94.96C298.56 94.96 299.541 94.96 300.48 94.96C301.504 95.0453 302.485 95.216 303.424 95.472C304.363 95.6427 305.301 95.856 306.24 96.112C307.691 96.624 308.885 97.392 309.824 98.416C310.677 99.5253 311.104 100.763 311.104 102.128C311.104 102.555 311.104 103.067 311.104 103.664C311.104 104.176 311.019 104.645 310.848 105.072C310.677 106.011 310.123 106.864 309.184 107.632C308.757 108.229 307.947 108.656 306.752 108.912C305.643 109.253 304.533 109.467 303.424 109.552C302.229 109.808 301.035 109.936 299.84 109.936H293.824L270.144 110.064L269.888 135.152L295.36 135.408H301.376C302.059 135.408 302.699 135.408 303.296 135.408C303.893 135.408 304.448 135.451 304.96 135.536C305.643 135.707 306.24 135.835 306.752 135.92C307.349 135.92 307.904 136.005 308.416 136.176C309.44 136.517 310.293 136.987 310.976 137.584C311.829 138.437 312.384 139.333 312.64 140.272C312.725 140.699 312.768 141.168 312.768 141.68C312.853 142.107 312.853 142.576 312.768 143.088C312.768 144.453 312.341 145.691 311.488 146.8C310.464 147.995 309.269 148.763 307.904 149.104C306.112 149.872 304.149 150.256 302.016 150.256C301.077 150.341 300.096 150.384 299.072 150.384C298.048 150.384 297.067 150.427 296.128 150.512H295.36C288.704 150.683 281.792 150.683 274.624 150.512C272.917 150.512 271.552 150.469 270.528 150.384C269.504 150.384 268.565 150.384 267.712 150.384C266.944 150.384 266.133 150.384 265.28 150.384C264.427 150.384 263.317 150.384 261.952 150.384C259.989 150.555 258.368 150.213 257.088 149.36C256.149 148.763 255.424 147.952 254.912 146.928C254.656 146.672 254.528 146.416 254.528 146.16C254.443 145.989 254.357 145.861 254.272 145.776C254.187 145.691 254.101 145.563 254.016 145.392C253.845 144.965 253.717 144.539 253.632 144.112C253.547 143.6 253.504 143.131 253.504 142.704C253.419 142.277 253.333 141.851 253.248 141.424C253.248 140.997 253.205 140.571 253.12 140.144V138.096C253.12 137.755 253.12 137.413 253.12 137.072C253.205 136.731 253.248 136.389 253.248 136.048V126.064L253.504 107.632V90.608C253.504 87.536 253.504 84.8053 253.504 82.416C253.589 80.0267 253.675 77.424 253.76 74.608V73.968C253.845 73.0293 253.888 72.176 253.888 71.408C253.973 70.5547 254.016 69.7013 254.016 68.848C254.101 67.1413 254.571 65.4773 255.424 63.856C255.765 63.1733 256.107 62.576 256.448 62.064C256.875 61.552 257.429 61.1253 258.112 60.784C259.392 60.016 260.715 59.632 262.08 59.632C262.763 59.632 263.275 59.6747 263.616 59.76V59.632C265.152 59.632 266.389 59.632 267.328 59.632C268.267 59.632 269.163 59.632 270.016 59.632C270.955 59.632 271.936 59.632 272.96 59.632C273.984 59.5467 275.392 59.504 277.184 59.504C280.597 59.4187 283.84 59.376 286.912 59.376C289.984 59.376 293.141 59.4187 296.384 59.504H296.896C297.835 59.5893 298.816 59.632 299.84 59.632C300.864 59.632 301.845 59.6747 302.784 59.76C303.723 59.76 304.661 59.888 305.6 60.144C306.539 60.3147 307.477 60.5707 308.416 60.912C309.867 61.3387 311.061 62.064 312 63.088C312.768 64.2827 313.152 65.4773 313.152 66.672C313.152 67.184 313.152 67.696 313.152 68.208C313.152 68.6347 313.067 69.0613 312.896 69.488C312.811 70.3413 312.299 71.2373 311.36 72.176C311.019 72.3467 310.635 72.56 310.208 72.816C309.867 73.072 309.44 73.2853 308.928 73.456C308.416 73.6267 307.861 73.7547 307.264 73.84C306.752 73.84 306.24 73.8827 305.728 73.968C305.045 74.1387 304.405 74.224 303.808 74.224C303.296 74.224 302.699 74.224 302.016 74.224H296.256L270.656 74.352V74.736ZM392.362 138.224C393.301 139.931 393.685 141.424 393.514 142.704C393.429 143.984 393.301 145.051 393.13 145.904C392.874 146.843 392.234 147.653 391.21 148.336C390.271 148.933 389.205 149.403 388.01 149.744C386.474 150.171 385.194 150.256 384.17 150C382.89 149.744 381.823 149.317 380.97 148.72C380.458 148.293 379.989 147.909 379.562 147.568C379.135 147.141 378.709 146.757 378.282 146.416C377.855 145.989 377.471 145.605 377.13 145.264C376.789 144.923 376.533 144.581 376.362 144.24C376.191 143.899 376.021 143.685 375.85 143.6C375.765 143.429 375.679 143.301 375.594 143.216L358.57 118.64L341.674 143.216C341.589 143.301 341.461 143.429 341.29 143.6C341.205 143.685 341.034 143.899 340.778 144.24C340.607 144.581 340.351 144.923 340.01 145.264C339.754 145.605 339.455 145.989 339.114 146.416C338.687 146.757 338.218 147.141 337.706 147.568C337.194 147.909 336.725 148.293 336.298 148.72C335.786 149.061 335.231 149.317 334.634 149.488C334.122 149.659 333.61 149.829 333.098 150C331.989 150.256 330.794 150.171 329.514 149.744C326.869 149.147 325.034 147.867 324.01 145.904C323.498 144.88 323.285 143.813 323.37 142.704C323.455 141.509 323.711 140.315 324.138 139.12C324.65 137.925 325.205 136.773 325.802 135.664C326.485 134.555 327.167 133.488 327.85 132.464C328.191 132.037 328.49 131.653 328.746 131.312C329.087 130.971 329.429 130.587 329.77 130.16C330.879 128.709 331.946 127.259 332.97 125.808C333.994 124.272 335.103 122.651 336.298 120.944L348.202 103.664L330.666 78.32L329.13 76.144C328.789 75.632 328.447 75.1627 328.106 74.736C327.765 74.3093 327.423 73.7973 327.082 73.2C326.741 72.7733 326.399 72.304 326.058 71.792C325.717 71.28 325.418 70.6827 325.162 70C324.906 69.488 324.65 69.0187 324.394 68.592C324.223 68.08 324.053 67.4827 323.882 66.8C323.626 65.776 323.541 64.8373 323.626 63.984C323.882 62.8747 324.437 61.936 325.29 61.168C325.631 60.7413 326.015 60.4 326.442 60.144C326.954 59.888 327.423 59.632 327.85 59.376C328.703 59.0347 329.471 58.7787 330.154 58.608C330.837 58.4373 331.562 58.352 332.33 58.352C333.866 58.4373 335.317 58.992 336.682 60.016C338.389 61.1253 339.925 62.4907 341.29 64.112C341.887 65.0507 342.485 65.9467 343.082 66.8C343.679 67.568 344.319 68.3787 345.002 69.232L345.13 69.744C347.263 72.56 349.183 75.2907 350.89 77.936C352.682 80.496 354.645 83.2267 356.778 86.128C357.119 86.5547 357.418 86.9813 357.674 87.408C357.93 87.8347 358.229 88.2613 358.57 88.688C358.911 88.2613 359.21 87.8347 359.466 87.408C359.722 86.9813 360.021 86.5547 360.362 86.128C362.325 83.2267 364.202 80.496 365.994 77.936C367.871 75.2907 369.834 72.56 371.882 69.744L372.138 69.232C372.821 68.3787 373.461 67.568 374.058 66.8C374.741 65.9467 375.381 65.0507 375.978 64.112C377.343 62.4907 378.879 61.1253 380.586 60.016C381.866 58.992 383.317 58.4373 384.938 58.352C386.303 58.352 387.754 58.6933 389.29 59.376C390.314 59.9733 391.082 60.5707 391.594 61.168C392.618 61.936 393.258 62.8747 393.514 63.984C393.599 64.8373 393.514 65.776 393.258 66.8C393.087 67.4827 392.874 68.08 392.618 68.592C392.447 69.0187 392.149 69.488 391.722 70C391.21 71.28 390.655 72.3467 390.058 73.2C389.717 73.7973 389.375 74.3093 389.034 74.736C388.693 75.1627 388.394 75.632 388.138 76.144L386.602 78.32L368.938 103.664L380.842 120.944L387.754 130.672C388.522 131.952 389.29 133.189 390.058 134.384C390.826 135.579 391.594 136.859 392.362 138.224ZM482.846 141.296C482.931 141.808 482.974 142.32 482.974 142.832C483.059 143.259 483.102 143.771 483.102 144.368C483.102 145.392 482.803 146.331 482.206 147.184C481.95 147.611 481.609 148.037 481.182 148.464C480.755 148.805 480.243 149.104 479.646 149.36C477.513 150.555 475.251 150.981 472.862 150.64C471.667 150.299 470.601 149.744 469.662 148.976C469.491 148.805 469.363 148.72 469.278 148.72C469.193 148.635 469.107 148.507 469.022 148.336C468.937 148.251 468.851 148.165 468.766 148.08C468.681 147.909 468.553 147.781 468.382 147.696C467.955 147.269 467.614 146.885 467.358 146.544C467.102 146.117 466.846 145.691 466.59 145.264C466.419 144.837 466.206 144.453 465.95 144.112C465.779 143.685 465.566 143.259 465.31 142.832C465.139 142.491 464.969 142.192 464.798 141.936C464.627 141.595 464.499 141.253 464.414 140.912C464.073 140.144 463.859 139.461 463.774 138.864L461.086 132.592C455.198 132.592 449.31 132.635 443.422 132.72C437.619 132.72 431.774 132.677 425.886 132.592L423.198 138.864C423.027 139.205 422.899 139.547 422.814 139.888C422.814 140.229 422.729 140.571 422.558 140.912C422.387 141.253 422.217 141.595 422.046 141.936C421.961 142.192 421.833 142.491 421.662 142.832C421.406 143.259 421.15 143.685 420.894 144.112C420.723 144.453 420.51 144.837 420.254 145.264C420.083 145.691 419.87 146.117 419.614 146.544C419.358 146.885 419.017 147.269 418.59 147.696C418.419 147.781 418.291 147.909 418.206 148.08C418.121 148.165 418.035 148.251 417.95 148.336C417.865 148.507 417.779 148.635 417.694 148.72C417.609 148.72 417.481 148.805 417.31 148.976C416.371 149.744 415.305 150.299 414.11 150.64C411.721 150.981 409.459 150.555 407.326 149.36C406.729 149.104 406.217 148.805 405.79 148.464C405.363 148.037 405.022 147.611 404.766 147.184C404.169 146.331 403.87 145.392 403.87 144.368C403.87 143.771 403.87 143.259 403.87 142.832C403.955 142.32 404.041 141.808 404.126 141.296C404.297 140.528 404.51 139.76 404.766 138.992C405.022 138.224 405.15 137.84 405.15 137.84L431.774 72.304L432.542 70.256C432.713 69.744 432.926 69.2747 433.182 68.848C433.438 68.4213 433.651 67.9093 433.822 67.312C434.249 66.2027 434.718 65.2213 435.23 64.368C435.486 63.856 435.785 63.3867 436.126 62.96C436.467 62.5333 436.809 62.1067 437.15 61.68C437.662 60.9973 438.387 60.4427 439.326 60.016C440.521 59.5893 441.886 59.376 443.422 59.376C445.043 59.376 446.451 59.5893 447.646 60.016C448.585 60.4427 449.31 60.9973 449.822 61.68C450.419 62.448 451.059 63.344 451.742 64.368C452.254 65.2213 452.723 66.2027 453.15 67.312C453.321 67.9093 453.534 68.4213 453.79 68.848C454.046 69.2747 454.259 69.744 454.43 70.256L455.198 72.304L481.822 137.84C481.822 137.84 481.95 138.224 482.206 138.992C482.462 139.76 482.675 140.528 482.846 141.296ZM452.51 109.936C451.401 107.461 450.249 104.901 449.054 102.256C447.945 99.6107 446.75 96.9227 445.47 94.192C445.129 93.424 444.787 92.656 444.446 91.888C444.105 91.0347 443.763 90.224 443.422 89.456C443.166 90.224 442.867 91.0347 442.526 91.888C442.185 92.656 441.843 93.424 441.502 94.192C440.222 96.9227 438.985 99.6107 437.79 102.256C436.681 104.901 435.571 107.461 434.462 109.936L432.158 115.568H454.814L452.51 109.936ZM571.322 140.784C571.237 141.808 571.109 142.875 570.938 143.984C570.767 145.093 570.469 146.117 570.042 147.056C569.615 148.08 569.061 148.848 568.378 149.36C567.439 150.213 566.33 150.683 565.05 150.768C563.855 151.195 562.703 151.323 561.594 151.152C560.485 150.981 559.461 150.683 558.522 150.256C557.327 149.488 556.431 148.592 555.834 147.568C555.322 146.459 554.938 145.307 554.682 144.112C554.426 142.917 554.298 141.68 554.298 140.4C554.298 139.12 554.298 137.925 554.298 136.816V126.832L554.17 107.248C554.17 105.883 554.17 104.816 554.17 104.048C554.17 103.28 554.17 102.597 554.17 102C554.17 101.317 554.127 100.592 554.042 99.824C554.042 98.9707 554.042 97.776 554.042 96.24C554.042 95.984 554.042 95.5573 554.042 94.96C554.127 94.2773 554.085 92.528 553.914 89.712C550.586 95.2587 547.813 99.7387 545.594 103.152C543.461 106.48 541.626 109.083 540.09 110.96C538.639 112.752 537.359 113.989 536.25 114.672C535.141 115.269 533.989 115.611 532.794 115.696C532.111 115.781 531.429 115.653 530.746 115.312C530.063 114.971 529.381 114.544 528.698 114.032C528.101 113.52 527.503 113.008 526.906 112.496C526.394 111.899 525.967 111.344 525.626 110.832C523.578 108.272 521.274 105.2 518.714 101.616C516.154 98.032 513.509 93.68 510.778 88.56C510.778 88.6453 510.735 90.0533 510.65 92.784C510.65 95.5147 510.65 98.928 510.65 103.024C510.65 107.035 510.607 111.387 510.522 116.08C510.522 120.688 510.479 124.997 510.394 129.008C510.394 133.019 510.351 136.389 510.266 139.12C510.181 141.765 510.095 143.088 510.01 143.088C510.01 144.539 509.669 145.904 508.986 147.184C508.303 148.379 507.365 149.36 506.17 150.128C505.061 150.896 503.738 151.323 502.202 151.408C500.666 151.493 499.002 151.067 497.21 150.128C496.101 149.445 495.247 148.464 494.65 147.184C494.138 145.904 493.797 144.709 493.626 143.6C493.541 142.405 493.455 141.253 493.37 140.144C493.37 139.035 493.37 137.883 493.37 136.688L493.498 126.704L493.626 106.992V89.84C493.626 82.416 493.882 75.12 494.394 67.952C494.394 67.0133 494.479 66.16 494.65 65.392C494.906 64.5387 495.205 63.728 495.546 62.96C496.229 61.5947 497.125 60.5707 498.234 59.888C499.514 59.12 500.879 58.736 502.33 58.736C502.927 58.736 503.482 58.7787 503.994 58.864C504.591 58.864 505.146 58.9067 505.658 58.992C507.365 59.3333 508.815 60.3573 510.01 62.064C511.29 63.6853 512.485 65.0933 513.594 66.288C514.277 67.056 515.002 67.9947 515.77 69.104C516.538 70.2133 517.306 71.3653 518.074 72.56C518.842 73.7547 519.567 74.9067 520.25 76.016C520.933 77.1253 521.53 78.1067 522.042 78.96C524.261 82.544 526.223 85.8293 527.93 88.816C529.722 91.8027 531.386 94.3627 532.922 96.496C533.178 96.24 533.477 95.8987 533.818 95.472C534.159 94.96 534.501 94.448 534.842 93.936C535.269 93.3387 535.61 92.784 535.866 92.272C536.207 91.76 536.463 91.3333 536.634 90.992C537.487 89.6267 538.341 88.304 539.194 87.024C540.047 85.6587 540.943 84.2507 541.882 82.8C542.906 81.264 543.93 79.6 544.954 77.808C546.063 76.016 547.343 73.968 548.794 71.664C549.391 70.64 550.159 69.4027 551.098 67.952C552.037 66.5013 553.103 65.0933 554.298 63.728C555.493 62.3627 556.73 61.2107 558.01 60.272C559.375 59.248 560.741 58.736 562.106 58.736C562.789 58.736 563.386 58.7787 563.898 58.864C564.41 58.864 564.922 58.9067 565.434 58.992C566.458 59.0773 567.439 59.5467 568.378 60.4C569.061 61.0827 569.573 61.808 569.914 62.576C570.255 63.6853 570.469 64.624 570.554 65.392C570.639 65.9893 570.682 66.544 570.682 67.056C570.767 67.568 570.81 68.08 570.81 68.592C570.81 73.3707 570.853 78.1067 570.938 82.8C571.023 87.4933 571.066 92.2293 571.066 97.008C571.066 102.811 571.066 108.784 571.066 114.928C571.151 121.072 571.194 127.045 571.194 132.848C571.194 134.043 571.237 135.323 571.322 136.688C571.407 138.053 571.407 139.419 571.322 140.784ZM648.049 112.752C648.476 113.947 648.774 115.312 648.945 116.848C649.201 118.299 649.329 119.792 649.329 121.328C649.329 122.864 649.201 124.4 648.945 125.936C648.774 127.387 648.518 128.667 648.177 129.776C646.812 134.555 644.081 138.565 639.985 141.808C635.889 144.965 631.196 147.269 625.905 148.72C620.7 150.171 615.281 150.683 609.649 150.256C604.102 149.829 599.153 148.421 594.801 146.032C592.07 144.496 589.724 142.619 587.761 140.4C585.798 138.181 584.134 135.707 582.769 132.976C582.257 132.037 581.916 130.971 581.745 129.776C581.66 128.496 581.788 127.301 582.129 126.192C582.47 124.997 583.025 123.973 583.793 123.12C584.561 122.181 585.628 121.541 586.993 121.2C587.846 121.029 588.785 120.944 589.809 120.944C590.918 120.944 591.985 121.115 593.009 121.456C594.033 121.712 594.972 122.181 595.825 122.864C596.678 123.461 597.361 124.315 597.873 125.424C598.812 127.216 600.134 128.88 601.841 130.416C603.633 131.867 605.51 133.061 607.473 134C610.289 134.939 613.105 135.323 615.921 135.152C618.822 134.981 621.425 134.341 623.729 133.232C626.118 132.123 628.038 130.629 629.489 128.752C630.94 126.789 631.665 124.571 631.665 122.096C631.665 120.048 631.366 118.384 630.769 117.104C630.172 115.739 629.318 114.629 628.209 113.776C627.185 112.837 625.905 112.069 624.369 111.472C622.918 110.875 621.297 110.363 619.505 109.936C617.457 109.509 615.366 109.211 613.233 109.04C611.185 108.869 609.094 108.656 606.961 108.4C604.828 108.144 602.737 107.803 600.689 107.376C598.641 106.949 596.636 106.309 594.673 105.456C590.748 103.835 587.761 101.36 585.713 98.032C583.665 94.704 582.428 91.12 582.001 87.28C581.66 83.44 582.129 79.6427 583.409 75.888C584.689 72.048 586.737 68.7627 589.553 66.032C592.284 63.5573 595.526 61.808 599.281 60.784C603.121 59.6747 607.345 59.0347 611.953 58.864C614.513 58.7787 617.073 58.864 619.633 59.12C622.278 59.376 624.796 59.8027 627.185 60.4C629.66 60.9973 631.921 61.7653 633.969 62.704C636.102 63.6427 637.937 64.752 639.473 66.032C640.582 66.8853 641.692 68.0373 642.801 69.488C643.91 70.8533 644.764 72.3467 645.361 73.968C645.958 75.504 646.129 76.9973 645.873 78.448C645.702 79.8987 644.806 81.136 643.185 82.16C641.82 83.0133 640.497 83.3973 639.217 83.312C638.022 83.1413 636.87 82.7573 635.761 82.16C634.652 81.4773 633.585 80.7093 632.561 79.856C631.537 79.0027 630.598 78.2347 629.745 77.552C627.441 75.8453 624.582 74.6933 621.169 74.096C617.756 73.4987 614.556 73.3707 611.569 73.712C609.692 73.968 607.942 74.3947 606.321 74.992C604.7 75.5893 603.292 76.4 602.097 77.424C600.988 78.448 600.092 79.728 599.409 81.264C598.812 82.7147 598.598 84.3787 598.769 86.256C598.854 87.6213 599.238 88.7733 599.921 89.712C600.689 90.6507 601.585 91.4187 602.609 92.016C603.718 92.6133 604.913 93.0827 606.193 93.424C607.473 93.7653 608.753 94.0213 610.033 94.192C613.873 94.704 617.713 95.088 621.553 95.344C625.393 95.6 629.148 96.4533 632.817 97.904C636.572 99.3547 639.772 101.317 642.417 103.792C645.062 106.267 646.94 109.253 648.049 112.752Z" fill="#494949"/>
</svg>
